<svg xmlns="http://www.w3.org/2000/svg" width="682.667" height="682.667" preserveAspectRatio="xMidYMid meet" version="1.0" viewBox="0 0 512 512"><metadata>Created by potrace 1.14, written by Peter Selinger 2001-2017</metadata><g fill="#000" stroke="none"><path d="M1398 4159 c-7 -4 -10 -532 -10 -1585 1 -869 1 -1588 1 -1600 1 -20 6 -20 251 -20 172 -1 250 3 253 10 1 6 3 302 2 658 0 570 2 647 15 650 22 5 590 2 593 -3 2 -2 127 -249 277 -549 150 -300 298 -594 329 -655 l56 -110 283 -1 c155 0 282 4 282 8 0 5 -32 70 -71 146 -39 75 -103 198 -141 272 -39 74 -94 180 -123 235 -29 55 -96 186 -150 290 -54 105 -126 243 -161 308 -34 64 -59 119 -56 121 4 2 42 18 85 36 159 66 308 205 385 360 35 69 75 185 88 256 25 132 24 375 -3 494 -72 329 -257 538 -558 633 -88 27 -114 32 -225 43 -93 9 -1388 11 -1402 3z m1416 -473 c63 -15 137 -59 176 -103 66 -75 81 -141 81 -363 1 -102 -4 -207 -10 -233 -30 -131 -117 -213 -258 -247 -37 -8 -173 -12 -460 -12 -224 0 -417 1 -428 1 -20 1 -21 5 -20 487 l0 485 445 -4 c245 -2 458 -7 474 -11z" transform="translate(0.000000,512.000000) scale(0.100000,-0.100000)"/></g></svg>